<svg xmlns="http://www.w3.org/2000/svg" width="1367.776" height="1471.735" viewBox="0 0 1367.776 1471.735">
  <g id="Groupe_4" data-name="Groupe 4" transform="translate(0.071 -623.062)">
    <g id="Tracé_19" data-name="Tracé 19" transform="translate(0 722.708)" fill="#5b29e6">
      <path d="M 681.843505859375 1371.588989257812 C 670.0670166015625 1371.588989257812 658.5385131835938 1371.15576171875 647.5781860351562 1370.301391601562 C 637.1438598632812 1369.488159179688 626.8825073242188 1368.26611328125 617.079345703125 1366.669555664062 C 599.0134887695312 1363.727294921875 582.0736694335938 1359.502807617188 565.2918090820312 1353.754272460938 C 551.3338623046875 1348.97314453125 537.2706909179688 1343.033813476562 522.2991943359375 1335.596801757812 C 508.9663391113281 1328.973754882812 496.23583984375 1321.840087890625 483.9243469238281 1314.941284179688 C 472.2986755371094 1308.426635742188 460.2771606445312 1301.690307617188 447.9666748046875 1295.519409179688 C 434.1763305664062 1288.60693359375 421.3836669921875 1283.10546875 408.8573303222656 1278.700561523438 C 393.8523254394531 1273.42431640625 378.8681640625 1269.5537109375 363.0481567382812 1266.867919921875 C 354.4893188476562 1265.414916992188 345.565673828125 1264.303588867188 336.5253295898438 1263.564819335938 C 327.052490234375 1262.790649414062 317.1188354492188 1262.398071289062 307 1262.398071289062 C 268.0733337402344 1262.398071289062 227.6940002441406 1268.144409179688 186.9839935302734 1279.477416992188 C 154.4210052490234 1288.54248046875 121.574333190918 1301.18212890625 89.35633087158203 1317.044921875 C 76.69983673095703 1323.276611328125 64.11100006103516 1330.026733398438 51.93949890136719 1337.108154296875 C 42.20199966430664 1342.7734375 32.70816802978516 1348.662109375 23.72166633605957 1354.610961914062 C 11.08029174804688 1362.979125976562 2.983798742294312 1369.134155273438 0.5 1371.061889648438 L 0.5 1.198332548141479 C 3.030414342880249 3.678104400634766 11.09355163574219 11.41415882110596 23.64716720581055 21.9107666015625 C 32.62416839599609 29.41660118103027 42.10933303833008 36.8469352722168 51.83916854858398 43.99526596069336 C 64.00150299072266 52.93059921264648 76.58283233642578 61.44810104370117 89.23400115966797 69.31126403808594 C 121.4396667480469 89.32843017578125 154.2870025634766 105.2782669067383 186.8631591796875 116.7177658081055 C 227.593994140625 131.0209350585938 268.0138244628906 138.2731018066406 307 138.2731018066406 C 317.1409912109375 138.2731018066406 327.0994873046875 137.777099609375 336.5988464355469 136.7987670898438 C 345.6643371582031 135.8650970458984 354.6156616210938 134.4606018066406 363.2036743164062 132.624267578125 C 379.0763244628906 129.2302703857422 394.1189880371094 124.3397674560547 409.1913452148438 117.6729354858398 C 415.9306640625 114.6919326782227 422.558837890625 111.4129333496094 429.454345703125 107.6485977172852 C 435.6021728515625 104.2924346923828 441.8273315429688 100.6222686767578 448.4859924316406 96.42793273925781 C 460.8580017089844 88.63459777832031 472.9418334960938 80.12860107421875 484.6278381347656 71.90260314941406 C 496.98583984375 63.2036018371582 509.7643432617188 54.20843505859375 523.1366577148438 45.85893249511719 C 530.3373413085938 41.36293411254883 537.11181640625 37.42010116577148 543.8473510742188 33.80493545532227 C 551.4136962890625 29.74393272399902 558.7313232421875 26.2004337310791 566.218505859375 22.97226715087891 C 574.2653198242188 19.50276756286621 582.525146484375 16.41426658630371 590.768310546875 13.79260063171387 C 599.5974731445312 10.98476696014404 608.76513671875 8.597766876220703 618.016845703125 6.698100090026855 C 627.8136596679688 4.686433792114258 638.0641479492188 3.146933555603027 648.4838256835938 2.122267007827759 C 659.4286499023438 1.045933604240417 670.93701171875 0.5001002550125122 682.6891479492188 0.5001002550125122 C 694.4388427734375 0.5001002550125122 705.9593505859375 1.045600295066833 716.9310302734375 2.121600151062012 C 727.3761596679688 3.145933628082275 737.6663208007812 4.68476676940918 747.5156860351562 6.695600032806396 C 756.8170166015625 8.594600677490234 766.0474853515625 10.98060035705566 774.9509887695312 13.78760051727295 C 783.2638549804688 16.40826606750488 791.6058349609375 19.49576759338379 799.745361328125 22.9640998840332 C 807.31884765625 26.19143295288086 814.7313232421875 29.73376655578613 822.4066772460938 33.79360198974609 C 829.2391967773438 37.40760040283203 836.1196899414062 41.34943389892578 843.4413452148438 45.84426879882812 C 857.0381469726562 54.19143295288086 870.0596923828125 63.18460083007812 882.6525268554688 71.88159942626953 C 894.5663452148438 80.10976409912109 906.8858032226562 88.61793518066406 919.4756469726562 96.41359710693359 C 926.2513427734375 100.6091003417969 932.5796508789062 104.2806015014648 938.8221435546875 107.6376037597656 C 945.8238525390625 111.4030990600586 952.5453491210938 114.6830978393555 959.370361328125 117.6651000976562 C 974.6341552734375 124.3342666625977 989.8218383789062 129.2265930175781 1005.801330566406 132.6219329833984 C 1014.447326660156 134.4589385986328 1023.445495605469 135.8639373779297 1032.545776367188 136.798095703125 C 1042.081665039062 137.7767639160156 1052.064453125 138.2731018066406 1062.217041015625 138.2731018066406 C 1101.239013671875 138.2731018066406 1141.512329101562 131.0207672119141 1181.917846679688 116.7174301147461 C 1214.234375 105.2776031494141 1246.707641601562 89.3272705078125 1278.435668945312 69.30943298339844 C 1290.899047851562 61.44610214233398 1303.276123046875 52.92826843261719 1315.223022460938 43.99276733398438 C 1324.780639648438 36.84426879882812 1334.086303710938 29.41360092163086 1342.881225585938 21.90743446350098 C 1355.139282226562 11.44552707672119 1363.002197265625 3.72575306892395 1365.5 1.219080805778503 L 1365.5 1371.0400390625 C 1363.059448242188 1369.081787109375 1355.24169921875 1362.944458007812 1343.009521484375 1354.614624023438 C 1334.273559570312 1348.665405273438 1325.025634765625 1342.776489257812 1315.522705078125 1337.110717773438 C 1303.644287109375 1330.029052734375 1291.331665039062 1323.278564453125 1278.926513671875 1317.046752929688 C 1247.348510742188 1301.18310546875 1214.987182617188 1288.543090820312 1182.741455078125 1279.477783203125 C 1142.4287109375 1268.144653320312 1102.183837890625 1262.398071289062 1063.124877929688 1262.398071289062 C 1052.963134765625 1262.398071289062 1042.966796875 1262.791259765625 1033.413452148438 1263.566772460938 C 1024.296630859375 1264.306762695312 1015.27783203125 1265.419921875 1006.607177734375 1266.875244140625 C 990.5821533203125 1269.565063476562 975.3351440429688 1273.441284179688 959.9949951171875 1278.72509765625 C 947.1898193359375 1283.135986328125 934.0611572265625 1288.644287109375 919.8591918945312 1295.565063476562 C 907.1815185546875 1301.743286132812 894.7675170898438 1308.486206054688 882.7621459960938 1315.00732421875 C 870.0723266601562 1321.900146484375 856.9505004882812 1329.027709960938 843.2581787109375 1335.6435546875 C 827.8833618164062 1343.072265625 813.50048828125 1349.004760742188 799.2874755859375 1353.77978515625 C 782.2008056640625 1359.520385742188 765.04052734375 1363.7392578125 746.8259887695312 1366.67724609375 C 736.9428100585938 1368.271484375 726.622314453125 1369.491455078125 716.1514892578125 1370.303466796875 C 705.1535034179688 1371.156494140625 693.6104736328125 1371.588989257812 681.843505859375 1371.588989257812 Z" stroke="none"/>
      <path d="M 682.6891479492188 0.9998779296875 C 670.9533081054688 0.9998779296875 659.4614868164062 1.544921875 648.5328369140625 2.61962890625 C 638.1303100585938 3.642822265625 627.8971557617188 5.1795654296875 618.1173095703125 7.187744140625 C 608.8828125 9.083984375 599.7323608398438 11.46630859375 590.9198608398438 14.2689208984375 C 582.6923217773438 16.8856201171875 574.4481811523438 19.96826171875 566.41650390625 23.4312744140625 C 558.9425048828125 26.65380859375 551.6375122070312 30.1910400390625 544.0838623046875 34.2452392578125 C 537.3579711914062 37.855224609375 530.5928344726562 41.792724609375 523.4014892578125 46.282958984375 C 510.041015625 54.6251220703125 497.2680053710938 63.6162109375 484.9156494140625 72.311279296875 C 473.2244873046875 80.5408935546875 461.1353149414062 89.05078125 448.7523193359375 96.8509521484375 C 442.0850219726562 101.05078125 435.850830078125 104.726318359375 429.6939697265625 108.08740234375 C 422.7861938476562 111.8583984375 416.1458129882812 115.1434326171875 409.3934936523438 118.130126953125 C 394.2894897460938 124.8109130859375 379.21484375 129.7119140625 363.3081665039062 133.1131591796875 C 354.70263671875 134.9532470703125 345.7335205078125 136.360595703125 336.6500244140625 137.296142578125 C 327.1337890625 138.276123046875 317.157958984375 138.7730712890625 307 138.7730712890625 C 267.9571533203125 138.7730712890625 227.481689453125 131.51123046875 186.697509765625 117.1895751953125 C 154.0870361328125 105.7379150390625 121.2066650390625 89.772216796875 88.969970703125 69.7357177734375 C 76.3079833984375 61.865966796875 63.7158203125 53.341064453125 51.543212890625 44.3980712890625 C 41.8048095703125 37.24365234375 32.311279296875 29.8067626953125 23.3265380859375 22.2940673828125 C 11.9315185546875 12.7664794921875 4.228271484375 5.5067138671875 1 2.3826904296875 L 1 1370.044799804688 C 4.1790771484375 1367.607421875 11.9310302734375 1361.816162109375 23.4456787109375 1354.193969726562 C 32.440185546875 1348.23974609375 41.9423828125 1342.345947265625 51.68798828125 1336.67578125 C 63.8695068359375 1329.588623046875 76.468505859375 1322.832885742188 89.1353759765625 1316.596313476562 C 121.3812255859375 1300.7197265625 154.2569580078125 1288.069091796875 186.849853515625 1278.995727539062 C 227.603515625 1267.650634765625 268.0279541015625 1261.898071289062 307 1261.898071289062 C 317.13232421875 1261.898071289062 327.079833984375 1262.291137695312 336.5660400390625 1263.06640625 C 345.6206665039062 1263.806396484375 354.558837890625 1264.919555664062 363.1320190429688 1266.375122070312 C 378.97998046875 1269.065551757812 393.9911499023438 1272.943115234375 409.023193359375 1278.228881835938 C 421.5695190429688 1282.640747070312 434.38134765625 1288.150268554688 448.1908569335938 1295.072387695312 C 460.511474609375 1301.248291015625 472.5381469726562 1307.987548828125 484.1688232421875 1314.5048828125 C 496.474853515625 1321.400756835938 509.2000122070312 1328.531494140625 522.5216674804688 1335.148803710938 C 537.4733276367188 1342.576049804688 551.5166625976562 1348.507080078125 565.453857421875 1353.28125 C 582.2088623046875 1359.020263671875 599.121826171875 1363.23828125 617.15966796875 1366.175903320312 C 626.9491577148438 1367.770263671875 637.1964721679688 1368.990600585938 647.6170043945312 1369.802734375 C 658.5645141601562 1370.656127929688 670.079833984375 1371.088745117188 681.843505859375 1371.088745117188 C 693.59765625 1371.088745117188 705.127685546875 1370.65673828125 716.1128540039062 1369.804809570312 C 726.5700073242188 1368.993774414062 736.8766479492188 1367.775390625 746.746337890625 1366.183471679688 C 764.9336547851562 1363.249755859375 782.0678100585938 1359.037475585938 799.1283569335938 1353.305786132812 C 813.3211669921875 1348.537475585938 827.6849975585938 1342.61279296875 843.0406494140625 1335.193237304688 C 856.72216796875 1328.582641601562 869.8388671875 1321.457885742188 882.5234985351562 1314.567749023438 C 894.53369140625 1308.044311523438 906.9525146484375 1301.298583984375 919.64013671875 1295.115600585938 C 933.8606567382812 1288.185791015625 947.0075073242188 1282.669799804688 959.8321533203125 1278.25244140625 C 975.1986694335938 1272.95947265625 990.4718017578125 1269.07666015625 1006.524291992188 1266.382080078125 C 1015.208862304688 1264.924438476562 1024.241943359375 1263.809448242188 1033.373046875 1263.068481445312 C 1042.939697265625 1262.291748046875 1052.94970703125 1261.898071289062 1063.124633789062 1261.898071289062 C 1102.2294921875 1261.898071289062 1142.519775390625 1267.650756835938 1182.876708984375 1278.996459960938 C 1215.152954101562 1288.070434570312 1247.544311523438 1300.722045898438 1279.151000976562 1316.599975585938 C 1291.56689453125 1322.837158203125 1303.89013671875 1329.593383789062 1315.778686523438 1336.681274414062 C 1325.290161132812 1342.351928710938 1334.546630859375 1348.246459960938 1343.291015625 1354.201049804688 C 1354.405029296875 1361.769653320312 1361.883422851562 1367.533569335938 1365 1370.002075195312 L 1365 2.4229736328125 C 1361.819091796875 5.57373046875 1354.312622070312 12.8082275390625 1343.205688476562 22.28759765625 C 1334.402709960938 29.80078125 1325.0888671875 37.2381591796875 1315.5224609375 44.3929443359375 C 1303.56494140625 53.33642578125 1291.177001953125 61.86181640625 1278.702514648438 69.7322998046875 C 1246.942993164062 89.7698974609375 1214.436157226562 105.736572265625 1182.084716796875 117.188720703125 C 1141.625366210938 131.5111083984375 1101.296020507812 138.7730712890625 1062.217041015625 138.7730712890625 C 1052.047485351562 138.7730712890625 1042.047485351562 138.27587890625 1032.49462890625 137.29541015625 C 1023.376708984375 136.359619140625 1014.36083984375 134.9517822265625 1005.697326660156 133.1109619140625 C 989.6845092773438 129.7086181640625 974.46533203125 124.80615234375 959.170166015625 118.123291015625 C 952.33251953125 115.1357421875 945.59912109375 111.8499755859375 938.5853271484375 108.077880859375 C 932.3338623046875 104.7159423828125 925.996826171875 101.03955078125 919.2125244140625 96.8387451171875 C 906.61181640625 89.036376953125 894.2871704101562 80.524658203125 882.3683471679688 72.29296875 C 869.781005859375 63.599609375 856.76513671875 54.6104736328125 843.1798095703125 46.270263671875 C 835.8673095703125 41.7811279296875 828.995849609375 37.844482421875 822.1728515625 34.2354736328125 C 814.510009765625 30.18212890625 807.10986328125 26.645751953125 799.54931640625 23.424072265625 C 791.4246826171875 19.9619140625 783.0980224609375 16.880126953125 774.8006591796875 14.2642822265625 C 765.9136962890625 11.46240234375 756.7000122070312 9.080810546875 747.4156494140625 7.185302734375 C 737.5831909179688 5.177978515625 727.3103637695312 3.6416015625 716.8821411132812 2.618896484375 C 705.9268188476562 1.5445556640625 694.4224853515625 0.9998779296875 682.6891479492188 0.9998779296875 M 0 -0.0001220703125 C 0 -0.0001220703125 136.32763671875 137.7730712890625 307 137.7730712890625 C 477.67236328125 137.7730712890625 493.885009765625 -0.0001220703125 682.6891479492188 -0.0001220703125 C 871.4935302734375 -0.0001220703125 891.3893432617188 137.7730712890625 1062.217041015625 137.7730712890625 C 1233.044677734375 137.7730712890625 1366 -0.0001220703125 1366 -0.0001220703125 L 1366 1372.088745117188 C 1366 1372.088745117188 1234.163818359375 1262.898071289062 1063.124633789062 1262.898071289062 C 892.085693359375 1262.898071289062 870.8746337890625 1372.088745117188 681.843505859375 1372.088745117188 C 492.8123168945312 1372.088745117188 477.4608154296875 1262.898071289062 307 1262.898071289062 C 136.5389404296875 1262.898071289062 0 1372.088745117188 0 1372.088745117188 L 0 -0.0001220703125 Z" stroke="none" fill="#707070"/>
    </g>
    <path id="Tracé_20" data-name="Tracé 20" d="M-7359.488,1217.541s167,169.088,326.458,179.18,173.865-117.69,347.731-114.04c135.267,2.839,172.481,86.809,258.787,118.032,24.416,8.833,52.98,13.425,88.943,10.606,161.995-12.7,328.214-206.322,328.214-206.322" transform="translate(7367.954 -574.119)" fill="none" stroke="#df4864" stroke-width="24"/>
  </g>
</svg>
